<?xml version="1.0" encoding="UTF-8"?>
<svg version="1.1" xmlns="http://www.w3.org/2000/svg" width="500" height="500">
<path d="M0 0 C0.66 0 1.32 0 2 0 C2.06993164 0.5983667 2.13986328 1.1967334 2.21191406 1.81323242 C3.46938921 21.29883013 3.46938921 21.29883013 11.625 38.25 C16.26956127 41.6723083 20.6523648 41.43233502 26.20800781 40.71484375 C28.51801667 40.33169082 30.82118455 39.9187035 33.125 39.5 C54.16174675 35.98537131 72.17693058 39.11795372 90 51 C90 51.66 90 52.32 90 53 C90.87398437 53.38671875 90.87398437 53.38671875 91.765625 53.78125 C94.1802903 55.09834017 95.81740177 56.55088384 97.75 58.5 C98.36359375 59.1084375 98.9771875 59.716875 99.609375 60.34375 C101 62 101 62 101 64 C101.66 64 102.32 64 103 64 C104.42944336 65.88916016 104.42944336 65.88916016 106.08984375 68.5390625 C106.70384033 69.50577881 107.31783691 70.47249512 107.95043945 71.46850586 C108.93403442 73.03097046 108.93403442 73.03097046 109.9375 74.625 C120.45213073 90.99546736 130.17181802 105.03806952 148 114 C148.77214844 114.39316406 149.54429687 114.78632813 150.33984375 115.19140625 C152.22039003 116.1399419 154.10931208 117.07184411 156 118 C156 118.33 156 118.66 156 119 C141.63108401 119.15409276 127.26211603 119.30205007 112.8930645 119.4429636 C106.22099378 119.50857373 99.54895767 119.57614522 92.87695312 119.64819336 C86.43849769 119.71764743 80.00000957 119.78195698 73.56146622 119.84269524 C71.10466775 119.86677657 68.64788675 119.89271367 66.19112778 119.92053413 C62.75098144 119.959174 59.31083222 119.99122418 55.87060547 120.02172852 C54.85424515 120.03467453 53.83788483 120.04762054 52.79072571 120.06095886 C48.06912191 120.09623482 43.64342824 119.99776825 39 119 C40.46773879 116.06452241 42.60583033 115.66316887 45.5625 114.3125 C56.29997164 109.03303057 61.86222528 102.76972787 66.3125 91.75 C68.00233281 82.53273015 68.02164654 74.11695654 63 66 C58.04964929 58.84949342 51.30005234 54.74492146 42.96875 52.5078125 C33.13199718 50.82521004 22.77115588 50.73385326 14 56 C6.34824964 61.86091517 5.55515259 70.66703121 4.31445312 79.65625 C4.14880859 80.9246875 3.98316406 82.193125 3.8125 83.5 C3.54663086 85.4490625 3.54663086 85.4490625 3.27539062 87.4375 C2.84193637 90.62397451 2.41706121 93.81134565 2 97 C1.01 96.505 1.01 96.505 0 96 C-0.45483398 93.84204102 -0.45483398 93.84204102 -0.74609375 91.00390625 C-0.91915039 89.45219727 -0.91915039 89.45219727 -1.09570312 87.86914062 C-1.31993084 85.69989762 -1.54389806 83.53062767 -1.76757812 81.36132812 C-3.25165878 67.28596706 -3.25165878 67.28596706 -11 56 C-18.77906594 52.09045228 -27.51893748 50.63430694 -36 49 C-36 48.34 -36 47.68 -36 47 C-35.45585449 46.89453857 -34.91170898 46.78907715 -34.35107422 46.68041992 C-31.85719133 46.19177159 -29.36617701 45.68975343 -26.875 45.1875 C-26.0190625 45.02185547 -25.163125 44.85621094 -24.28125 44.68554688 C-17.42617171 43.28816553 -11.53768998 41.64563555 -7.08447266 35.83520508 C-2.80823332 28.59871452 -2.22096701 19.5462388 -1.3125 11.375 C-1.18294922 10.27542969 -1.05339844 9.17585937 -0.91992188 8.04296875 C-0.6052932 5.36279857 -0.29881527 2.68197116 0 0 Z " fill="#F6F6F6" transform="translate(211,220)"/>
<path d="M0 0 C4.03885645 1.34628548 4.94660946 3.88970814 6.875 7.4375 C7.36419922 8.30665039 7.36419922 8.30665039 7.86328125 9.19335938 C9.79114248 12.65525804 11.58177181 16.16804411 13.32421875 19.7265625 C16.25344646 25.62710453 19.5825615 31.2713014 22.9375 36.9375 C26.94935489 43.73113944 30.88385605 50.54684582 34.63549805 57.48803711 C36.17800414 60.32769451 37.76901219 63.1366784 39.37084961 65.94311523 C42.56184389 71.53557191 45.61531696 77.1466999 48.4375 82.9375 C51.56290916 89.32837204 55.10549337 95.41428141 58.80053711 101.49194336 C62 106.79747614 62 106.79747614 62 109 C59.19129855 108.55060777 57.52191735 107.70501283 55.0625 106.1875 C47.5252152 101.77074712 38.74531749 100.07794552 30.25 98.5 C17.66637535 96.08156443 7.58309407 90.54287722 0 80 C-10.88393344 62.99187078 -13.89609346 43.29087448 -10.3125 23.453125 C-8.44667652 15.95873401 -5.61885304 5.61885304 0 0 Z " fill="#F7F7F7" transform="translate(235,145)"/>
<path d="M0 0 C3.33159739 2.22106493 3.56086123 2.88796484 4.8125 6.5 C10.90073579 22.58037851 20.87380127 31.34009328 36.1875 38.4375 C38.12140878 39.29976666 40.05762933 40.1569679 42 41 C42 41.33 42 41.66 42 42 C37.97015284 42.75400883 34.16257076 43.12614848 30.06494141 43.12939453 C28.34121811 43.13412277 28.34121811 43.13412277 26.58267212 43.13894653 C24.73577286 43.13591019 24.73577286 43.13591019 22.8515625 43.1328125 C21.56623627 43.13376923 20.28091003 43.13472595 18.95663452 43.13571167 C16.23491207 43.13718305 13.51322251 43.1350556 10.79150391 43.13037109 C7.35125188 43.12473035 3.9110782 43.12800538 0.47082901 43.13382339 C-26.74292307 43.17264896 -26.74292307 43.17264896 -40 42 C-38.41453652 38.82907305 -35.59979157 38.47402211 -32.375 37.1875 C-27.02456914 35.00262785 -22.56994029 32.5313175 -18 29 C-17.34 29 -16.68 29 -16 29 C-16 28.34 -16 27.68 -16 27 C-15.34 27 -14.68 27 -14 27 C-14 26.34 -14 25.68 -14 25 C-13.34 25 -12.68 25 -12 25 C-11.773125 24.34 -11.54625 23.68 -11.3125 23 C-10.2380824 20.54418834 -9.15395837 18.64641056 -7.6875 16.4375 C-4.36976205 11.29303134 -2.22516858 5.68128148 0 0 Z " fill="#EAE8E9" transform="translate(173,297)"/>
<path d="M0 0 C0.66 0 1.32 0 2 0 C2.06993164 0.5983667 2.13986328 1.1967334 2.21191406 1.81323242 C4.0410877 17.46294195 4.0410877 17.46294195 8.42578125 32.5390625 C9 35 9 35 8.10546875 37.3359375 C7.74066406 37.88507813 7.37585938 38.43421875 7 39 C4.84968557 34.69937115 3.87092577 30.77574667 4 26 C2.68 26 1.36 26 0 26 C-0.28875 26.804375 -0.5775 27.60875 -0.875 28.4375 C-2 31 -2 31 -4 32 C-2.66666667 21.33333333 -1.33333333 10.66666667 0 0 Z " fill="#E6E3E3" transform="translate(211,220)"/>
<path d="M0 0 C0 3 0 3 -1.875 5.1875 C-4 7 -4 7 -6 7 C-6 7.66 -6 8.32 -6 9 C-8.64 9.33 -11.28 9.66 -14 10 C-14.33 10.99 -14.66 11.98 -15 13 C-13.68 13.66 -12.36 14.32 -11 15 C-14.97450493 16.51553092 -18.20481149 15.49888623 -22.25 14.5625 C-24.14492187 14.13130859 -24.14492187 14.13130859 -26.078125 13.69140625 C-27.04234375 13.46324219 -28.0065625 13.23507812 -29 13 C-29 12.34 -29 11.68 -29 11 C-28.45585449 10.89453857 -27.91170898 10.78907715 -27.35107422 10.68041992 C-24.85719133 10.19177159 -22.36617701 9.68975343 -19.875 9.1875 C-19.0190625 9.02185547 -18.163125 8.85621094 -17.28125 8.68554688 C-10.30904626 7.26428996 -4.8784244 5.44131952 0 0 Z " fill="#CBC7C7" transform="translate(204,256)"/>
<path d="M0 0 C1 3 1 3 1 5 C0.01 5.33 -0.98 5.66 -2 6 C-3.81781867 7.60807036 -4.9107426 8.8214852 -6 11 C-7.485 13.475 -7.485 13.475 -9 16 C-12.96 15.67 -16.92 15.34 -21 15 C-19.53226121 12.06452241 -17.39416967 11.66316887 -14.4375 10.3125 C-8.79740342 7.58342101 -4.42907123 4.40301787 0 0 Z " fill="#B2AEB0" transform="translate(271,324)"/>
<path d="M0 0 C1.20029908 3.60089725 0.7817151 5.67396858 0.22265625 9.41796875 C-0.05288086 11.29838867 -0.05288086 11.29838867 -0.33398438 13.21679688 C-0.53500502 14.54038756 -0.73617886 15.86395499 -0.9375 17.1875 C-1.13540802 18.5226914 -1.33268119 19.85797706 -1.52929688 21.19335938 C-2.01328378 24.46322213 -2.5037715 27.73197638 -3 31 C-3.66 30.67 -4.32 30.34 -5 30 C-5.4850607 27.45792265 -5.8442493 25.00337728 -6.125 22.4375 C-6.21136719 21.74591797 -6.29773438 21.05433594 -6.38671875 20.34179688 C-6.95128811 15.53399589 -7.0762133 10.83954444 -7 6 C-6.67 6 -6.34 6 -6 6 C-6 7.98 -6 9.96 -6 12 C-5.01 12 -4.02 12 -3 12 C-2.01 8.04 -1.02 4.08 0 0 Z " fill="#9D9B9A" transform="translate(216,286)"/>
<path d="M0 0 C2.49552403 2.27597646 4.06622986 4.60721178 5.6875 7.5625 C6.12449219 8.34753906 6.56148438 9.13257813 7.01171875 9.94140625 C8 12 8 12 8 14 C3.80639551 13.32902328 0.59665648 11.1441606 -3 9 C-2.34 8.67 -1.68 8.34 -1 8 C-1.20625 7.4225 -1.4125 6.845 -1.625 6.25 C-2.08661261 3.48032433 -1.42944945 2.35438733 0 0 Z " fill="#CFCCCB" transform="translate(289,240)"/>
<path d="M0 0 C3.3534521 2.23563473 3.81616408 3.29405873 5.25 6.9375 C5.78367188 8.25041016 5.78367188 8.25041016 6.328125 9.58984375 C7 12 7 12 6 15 C5.34 14.67 4.68 14.34 4 14 C4 12.35 4 10.7 4 9 C3.34 9 2.68 9 2 9 C1.67 9.99 1.34 10.98 1 12 C0.34 12 -0.32 12 -1 12 C-1 11.01 -1 10.02 -1 9 C-1.66 9 -2.32 9 -3 9 C-2.01 6.03 -1.02 3.06 0 0 Z " fill="#DBD8D7" transform="translate(173,297)"/>
<path d="M0 0 C0.66 0 1.32 0 2 0 C2.90413673 3.83724172 3.10576898 7.37502274 3.0625 11.3125 C3.05347656 12.38113281 3.04445312 13.44976562 3.03515625 14.55078125 C3.02355469 15.35902344 3.01195312 16.16726562 3 17 C2.34 16.67 1.68 16.34 1 16 C0.67 17.98 0.34 19.96 0 22 C-0.33 22 -0.66 22 -1 22 C-1.10331031 14.57313685 -0.99862699 7.36487404 0 0 Z " fill="#B1ADAD" transform="translate(211,220)"/>
<path d="M0 0 C3 1 3 1 5 4 C4.67 4.99 4.34 5.98 4 7 C4 6.34 4 5.68 4 5 C1.36 7.31 -1.28 9.62 -4 12 C-4.66 11.67 -5.32 11.34 -6 11 C-5.18993474 9.35296694 -4.3768779 7.70740494 -3.5625 6.0625 C-3.11003906 5.14597656 -2.65757812 4.22945312 -2.19140625 3.28515625 C-1 1 -1 1 0 0 Z " fill="#B3B0B1" transform="translate(235,145)"/>
<path d="M0 0 C1.29596432 2.15081966 2.06341995 3.43252507 1.77978516 5.97045898 C1.57659668 6.65954346 1.3734082 7.34862793 1.1640625 8.05859375 C-0.19797334 13.39195881 -0.44180735 18.57817017 -0.625 24.0625 C-0.66367188 25.02349609 -0.70234375 25.98449219 -0.7421875 26.97460938 C-0.83538626 29.31622814 -0.92119185 31.65786037 -1 34 C-1.33 34 -1.66 34 -2 34 C-2.05868218 30.0208966 -2.0938239 26.04190647 -2.125 22.0625 C-2.14175781 20.94552734 -2.15851563 19.82855469 -2.17578125 18.67773438 C-2.21430039 12.11022104 -1.70947839 6.34660678 0 0 Z " fill="#82807F" transform="translate(226,164)"/>
<path d="M0 0 C2.63978826 3.18595135 5.10498388 6.30970546 7 10 C6.67 10.66 6.34 11.32 6 12 C3.03 11.505 3.03 11.505 0 11 C0.33 10.34 0.66 9.68 1 9 C0.06553465 6.96855359 -0.93224776 4.96466413 -2 3 C-1.34 2.01 -0.68 1.02 0 0 Z " fill="#C4C2C3" transform="translate(273,211)"/>
<path d="M0 0 C1.1725131 0.95117134 2.33787015 1.91117009 3.5 2.875 C4.47453125 3.67550781 4.47453125 3.67550781 5.46875 4.4921875 C6.22671875 5.23855469 6.22671875 5.23855469 7 6 C7 6.66 7 7.32 7 8 C7.66 8 8.32 8 9 8 C9 8.66 9 9.32 9 10 C4.125 8.25 4.125 8.25 3 6 C2.34 5.67 1.68 5.34 1 5 C-1 4 -1 4 -2 2 C-1.34 2 -0.68 2 0 2 C0 1.34 0 0.68 0 0 Z " fill="#C3C2C3" transform="translate(305,276)"/>
<path d="M0 0 C0.99 0.639375 1.98 1.27875 3 1.9375 C7.00282486 4.25406326 10.41921002 4.67854105 15 5 C15 5.33 15 5.66 15 6 C12.54101345 6.08076963 10.08466258 6.14037143 7.625 6.1875 C6.57699219 6.22520508 6.57699219 6.22520508 5.5078125 6.26367188 C3.4765625 6.29296875 3.4765625 6.29296875 0 6 C-0.66 5.01 -1.32 4.02 -2 3 C-1.34 3 -0.68 3 0 3 C0 2.01 0 1.02 0 0 Z " fill="#B9B8B8" transform="translate(220,257)"/>
<path d="M0 0 C-0.61488281 0.67095703 -0.61488281 0.67095703 -1.2421875 1.35546875 C-4.25640074 4.73744485 -6.66050545 7.579668 -8 12 C-9.125 10.25 -9.125 10.25 -10 8 C-9.125 5.875 -9.125 5.875 -8 4 C-8 3.34 -8 2.68 -8 2 C-4.77208445 -0.1519437 -3.71599191 -0.20086443 0 0 Z " fill="#B2AEAF" transform="translate(226,274)"/>
<path d="M0 0 C3.09592835 3.5087188 4.74194623 6.49197399 6 11 C4.68 11 3.36 11 2 11 C2 10.01 2 9.02 2 8 C1.01 8.495 1.01 8.495 0 9 C-0.66 7.35 -1.32 5.7 -2 4 C-1.34 4 -0.68 4 0 4 C0 2.68 0 1.36 0 0 Z " fill="#BBBABA" transform="translate(261,189)"/>
<path d="M0 0 C0 0.66 0 1.32 0 2 C-2.31 2.33 -4.62 2.66 -7 3 C-6.67 3.66 -6.34 4.32 -6 5 C-8.64 4.67 -11.28 4.34 -14 4 C-14 3.34 -14 2.68 -14 2 C-12.4176994 1.66179834 -10.83410625 1.32964061 -9.25 1 C-8.36828125 0.814375 -7.4865625 0.62875 -6.578125 0.4375 C-4 0 -4 0 0 0 Z " fill="#9F9B99" transform="translate(189,265)"/>
<path d="M0 0 C7 8.44827586 7 8.44827586 7 12 C3.125 11.125 3.125 11.125 2 10 C1.95919217 8.00041636 1.95745644 5.99954746 2 4 C1.01 3.67 0.02 3.34 -1 3 C-0.67 2.01 -0.34 1.02 0 0 Z " fill="#B6B6B4" transform="translate(254,177)"/>
<path d="M0 0 C3.08089673 2.77280706 4.68775452 5.06326356 6 9 C5.01 9.33 4.02 9.66 3 10 C1 7 1 7 1 4 C0.34 3.67 -0.32 3.34 -1 3 C-0.67 2.01 -0.34 1.02 0 0 Z " fill="#BDBABC" transform="translate(322,298)"/>
<path d="M0 0 C0 3 0 3 -1.875 5.1875 C-4 7 -4 7 -6 7 C-6 7.66 -6 8.32 -6 9 C-8.64 9 -11.28 9 -14 9 C-11.67877973 7.83938987 -9.36008122 6.70670389 -7 5.625 C-4.08240713 4.04463719 -2.20046735 2.45436742 0 0 Z " fill="#7F7D7D" transform="translate(204,256)"/>
<path d="M0 0 C-0.33 0.99 -0.66 1.98 -1 3 C-3.875 3.125 -3.875 3.125 -7 3 C-7.66 2.34 -8.32 1.68 -9 1 C-5.64919071 -1.10976881 -3.77897651 -1.0497157 0 0 Z " fill="#D4D1D2" transform="translate(263,337)"/>
<path d="M0 0 C3.37503669 1.1858237 5.64722731 2.27573689 8 5 C2.25 6.125 2.25 6.125 0 5 C0 3.35 0 1.7 0 0 Z " fill="#C1C0BF" transform="translate(347,328)"/>
<path d="M0 0 C2.31 1.65 4.62 3.3 7 5 C3.23375329 6.25541557 1.62811066 5.37061958 -2 4 C-1.34 2.68 -0.68 1.36 0 0 Z " fill="#C8C7C5" transform="translate(338,320)"/>
<path d="M0 0 C0.99 0.66 1.98 1.32 3 2 C2.67 3.32 2.34 4.64 2 6 C1.67 5.67 1.34 5.34 1 5 C-0.32 6.32 -1.64 7.64 -3 9 C-2.01 6.03 -1.02 3.06 0 0 Z " fill="#9B9392" transform="translate(173,297)"/>
<path d="M0 0 C0.33 0 0.66 0 1 0 C1.08078641 2.12438339 1.13909141 4.2496323 1.1875 6.375 C1.22230469 7.55835938 1.25710937 8.74171875 1.29296875 9.9609375 C1.19628906 10.96382812 1.09960938 11.96671875 1 13 C0.01 13.66 -0.98 14.32 -2 15 C-1.38487182 9.99109914 -0.7282448 4.99367864 0 0 Z " fill="#878585" transform="translate(209,237)"/>
<path d="M0 0 C3.48331435 3.01887244 4.79157144 5.56909529 6 10 C5.34 10 4.68 10 4 10 C1.46093936 7.38626111 0.07743148 5.87110419 -0.25 2.1875 C-0.1675 1.465625 -0.085 0.74375 0 0 Z " fill="#AEADAC" transform="translate(248,167)"/>
<path d="M0 0 C0.33 0.66 0.66 1.32 1 2 C1.66 2 2.32 2 3 2 C3.625 4.3125 3.625 4.3125 4 7 C3.01 8.485 3.01 8.485 2 10 C0.68 7.03 -0.64 4.06 -2 1 C-1.34 0.67 -0.68 0.34 0 0 Z " fill="#B4B1B2" transform="translate(275,282)"/>
<path d="M0 0 C2.50037734 2.17424117 3.43628586 3.73045798 4 7 C0.73045798 6.43628586 -0.82575883 5.50037734 -3 3 C-2.01 3 -1.02 3 0 3 C0 2.01 0 1.02 0 0 Z " fill="#83807F" transform="translate(293,247)"/>
<path d="M0 0 C1.43088528 2.86177057 0.59991697 4.93375773 0 8 C0.99 8 1.98 8 3 8 C3 8.66 3 9.32 3 10 C2.34 10 1.68 10 1 10 C0.67 10.99 0.34 11.98 0 13 C-0.38885039 11.21128822 -0.76069196 9.41887126 -1.125 7.625 C-1.33382812 6.62726563 -1.54265625 5.62953125 -1.7578125 4.6015625 C-1.83773437 3.74304688 -1.91765625 2.88453125 -2 2 C-1.34 1.34 -0.68 0.68 0 0 Z " fill="#B8B6B7" transform="translate(227,196)"/>
<path d="M0 0 C2.18975773 3.28463659 2.99806563 6.20696275 4 10 C3.01 10.66 2.02 11.32 1 12 C1 10.35 1 8.7 1 7 C0.34 7 -0.32 7 -1 7 C-0.67 4.69 -0.34 2.38 0 0 Z " fill="#AEACAD" transform="translate(216,247)"/>
<path d="M0 0 C2.15377564 2.62198774 3.40072174 4.64404172 4 8 C1.525 7.01 1.525 7.01 -1 6 C-0.67 4.02 -0.34 2.04 0 0 Z M-3 6 C-2.34 6 -1.68 6 -1 6 C-1.33 6.66 -1.66 7.32 -2 8 C-2.33 7.34 -2.66 6.68 -3 6 Z " fill="#CACAC8" transform="translate(285,232)"/>
<path d="M0 0 C1.98 0.66 3.96 1.32 6 2 C3.03312999 3.64826111 0.34373475 4.44271087 -3 5 C-2.01 3.35 -1.02 1.7 0 0 Z " fill="#AAA6A7" transform="translate(229,269)"/>
<path d="M0 0 C2.97 0 5.94 0 9 0 C9 3 9 3 8 5 C5.36 3.68 2.72 2.36 0 1 C0 0.67 0 0.34 0 0 Z " fill="#918E8F" transform="translate(193,272)"/>
<path d="M0 0 C1.44977894 2.34112451 2.04314411 3.5796929 1.7578125 6.359375 C1.54898438 7.14828125 1.34015625 7.9371875 1.125 8.75 C0.92132813 9.54921875 0.71765625 10.3484375 0.5078125 11.171875 C0.34023437 11.77515625 0.17265625 12.3784375 0 13 C-0.33 13 -0.66 13 -1 13 C-1.07654536 8.48382401 -1.10228696 4.40914783 0 0 Z " fill="#B5B1B4" transform="translate(226,164)"/>
<path d="M0 0 C2.475 0.99 2.475 0.99 5 2 C4.67 2.99 4.34 3.98 4 5 C4 4.34 4 3.68 4 3 C2.35 3.66 0.7 4.32 -1 5 C-0.67 3.35 -0.34 1.7 0 0 Z " fill="#CECACB" transform="translate(235,147)"/>
</svg>
